<svg xmlns="http://www.w3.org/2000/svg" viewBox="0 0 64 64" width="96" height="96" stroke-linecap="round" stroke-linejoin="round"><rect width="64" height="64" fill="#F4EFE3"/><path d="M0 8L8 0M0 24L24 0M0 40L40 0M0 56L56 0M0 72L72 0M0 88L88 0M0 104L104 0M0 120L120 0" fill="none" stroke="#E2DAC8" stroke-width="4"/><path d="M20 25C16 18 14 12 14 6C19 10 24 14 28 20Z" fill="#4EA8F0" stroke="#111111" stroke-width="3"/><path d="M44 25C48 18 50 12 50 6C45 10 40 14 36 20Z" fill="#4EA8F0" stroke="#111111" stroke-width="3"/><g transform="translate(3 3)"><path d="M13 67V35C13 24.51 21.51 16 32 16C42.49 16 51 24.51 51 35V67Z" fill="#111111" stroke="#111111" stroke-width="3"/></g><path d="M13 67V35C13 24.51 21.51 16 32 16C42.49 16 51 24.51 51 35V67Z" fill="#FF6F59" stroke="#111111" stroke-width="3"/><circle cx="32" cy="32.5" r="5.2" fill="#FFFFFF" stroke="#111111" stroke-width="2.5"/><circle cx="33.2" cy="33.6" r="2.6" fill="#111111"/><circle cx="32.4" cy="32.8" r="0.9" fill="#FFFFFF"/><path d="M26 46L29 43L32 46L35 43L38 46" fill="none" stroke="#111111" stroke-width="3"/></svg>