<svg xmlns="http://www.w3.org/2000/svg" viewBox="0 0 742 132" width="742" height="132"><defs><clipPath id="tile"><rect width="72" height="72" rx="14"/></clipPath></defs><rect x="1.5" y="1.5" width="739" height="129" rx="20" fill="#F4EFE3" stroke="#111111" stroke-width="3"/><g transform="translate(20 20)"><rect x="4" y="4" width="72" height="72" rx="14" fill="#111111"/><g clip-path="url(#tile)"><svg xmlns="http://www.w3.org/2000/svg" viewBox="0 0 64 64" width="72" height="72" stroke-linecap="round" stroke-linejoin="round"><rect width="64" height="64" fill="#FFD23F"/><path d="M4 4H64M4 12H64M4 20H64M4 28H64M4 36H64M4 44H64M4 52H64M4 60H64" fill="none" stroke="#EBB920" stroke-width="2.6" stroke-dasharray="0 8"/><g transform="translate(3 3)"><path d="M13 67V35C13 24.51 21.51 16 32 16C42.49 16 51 24.51 51 35V67Z" fill="#111111" stroke="#111111" stroke-width="3"/></g><path d="M13 67V35C13 24.51 21.51 16 32 16C42.49 16 51 24.51 51 35V67Z" fill="#FF6B9A" stroke="#111111" stroke-width="3"/><circle cx="25" cy="32" r="3.5" fill="#111111"/><circle cx="39" cy="32" r="3.5" fill="#111111"/><path d="M25 42H39C39 46.5 36 49 32 49C28 49 25 46.5 25 42Z" fill="#111111" stroke="#111111" stroke-width="2"/><rect x="26.5" y="43" width="11" height="2.4" rx="0.5" fill="#FFFFFF"/><path d="M21 21V9L26.5 14.5L32 7L37.5 14.5L43 9V21Z" fill="#3BCEAC" stroke="#111111" stroke-width="2.5"/><circle cx="32" cy="17" r="1.8" fill="#4EA8F0"/></svg></g><rect x="1.5" y="1.5" width="69" height="69" rx="13" fill="none" stroke="#111111" stroke-width="3"/></g><text x="56" y="118" text-anchor="middle" font-family="ui-monospace, SFMono-Regular, Menlo, Consolas, monospace" font-size="12" font-weight="600" fill="#111111">lemon</text><g transform="translate(110 20)"><rect x="4" y="4" width="72" height="72" rx="14" fill="#111111"/><g clip-path="url(#tile)"><svg xmlns="http://www.w3.org/2000/svg" viewBox="0 0 64 64" width="72" height="72" stroke-linecap="round" stroke-linejoin="round"><rect width="64" height="64" fill="#62B0EC"/><path d="M4 4H64M4 12H64M4 20H64M4 28H64M4 36H64M4 44H64M4 52H64M4 60H64" fill="none" stroke="#4A98D9" stroke-width="2.6" stroke-dasharray="0 8"/><g transform="translate(3 3)"><path d="M13 67V35C13 24.51 21.51 16 32 16C42.49 16 51 24.51 51 35V67Z" fill="#111111" stroke="#111111" stroke-width="3"/></g><path d="M13 67V35C13 24.51 21.51 16 32 16C42.49 16 51 24.51 51 35V67Z" fill="#FF8C42" stroke="#111111" stroke-width="3"/><circle cx="25" cy="32" r="3.5" fill="#111111"/><circle cx="39" cy="32" r="3.5" fill="#111111"/><path d="M25 42H39C39 46.5 36 49 32 49C28 49 25 46.5 25 42Z" fill="#111111" stroke="#111111" stroke-width="2"/><rect x="26.5" y="43" width="11" height="2.4" rx="0.5" fill="#FFFFFF"/><path d="M21 21V9L26.5 14.5L32 7L37.5 14.5L43 9V21Z" fill="#FFD23F" stroke="#111111" stroke-width="2.5"/><circle cx="32" cy="17" r="1.8" fill="#FF6B9A"/></svg></g><rect x="1.5" y="1.5" width="69" height="69" rx="13" fill="none" stroke="#111111" stroke-width="3"/></g><text x="146" y="118" text-anchor="middle" font-family="ui-monospace, SFMono-Regular, Menlo, Consolas, monospace" font-size="12" font-weight="600" fill="#111111">sky</text><g transform="translate(200 20)"><rect x="4" y="4" width="72" height="72" rx="14" fill="#111111"/><g clip-path="url(#tile)"><svg xmlns="http://www.w3.org/2000/svg" viewBox="0 0 64 64" width="72" height="72" stroke-linecap="round" stroke-linejoin="round"><rect width="64" height="64" fill="#7BDFB5"/><path d="M4 4H64M4 12H64M4 20H64M4 28H64M4 36H64M4 44H64M4 52H64M4 60H64" fill="none" stroke="#5FC89B" stroke-width="2.6" stroke-dasharray="0 8"/><g transform="translate(3 3)"><path d="M13 67V35C13 24.51 21.51 16 32 16C42.49 16 51 24.51 51 35V67Z" fill="#111111" stroke="#111111" stroke-width="3"/></g><path d="M13 67V35C13 24.51 21.51 16 32 16C42.49 16 51 24.51 51 35V67Z" fill="#A675E0" stroke="#111111" stroke-width="3"/><circle cx="25" cy="32" r="3.5" fill="#111111"/><circle cx="39" cy="32" r="3.5" fill="#111111"/><path d="M25 42H39C39 46.5 36 49 32 49C28 49 25 46.5 25 42Z" fill="#111111" stroke="#111111" stroke-width="2"/><rect x="26.5" y="43" width="11" height="2.4" rx="0.5" fill="#FFFFFF"/><path d="M21 21V9L26.5 14.5L32 7L37.5 14.5L43 9V21Z" fill="#FFD23F" stroke="#111111" stroke-width="2.5"/><circle cx="32" cy="17" r="1.8" fill="#FF6B9A"/></svg></g><rect x="1.5" y="1.5" width="69" height="69" rx="13" fill="none" stroke="#111111" stroke-width="3"/></g><text x="236" y="118" text-anchor="middle" font-family="ui-monospace, SFMono-Regular, Menlo, Consolas, monospace" font-size="12" font-weight="600" fill="#111111">mint</text><g transform="translate(290 20)"><rect x="4" y="4" width="72" height="72" rx="14" fill="#111111"/><g clip-path="url(#tile)"><svg xmlns="http://www.w3.org/2000/svg" viewBox="0 0 64 64" width="72" height="72" stroke-linecap="round" stroke-linejoin="round"><rect width="64" height="64" fill="#FF6F59"/><path d="M4 4H64M4 12H64M4 20H64M4 28H64M4 36H64M4 44H64M4 52H64M4 60H64" fill="none" stroke="#EE5640" stroke-width="2.6" stroke-dasharray="0 8"/><g transform="translate(3 3)"><path d="M13 67V35C13 24.51 21.51 16 32 16C42.49 16 51 24.51 51 35V67Z" fill="#111111" stroke="#111111" stroke-width="3"/></g><path d="M13 67V35C13 24.51 21.51 16 32 16C42.49 16 51 24.51 51 35V67Z" fill="#F4EFE3" stroke="#111111" stroke-width="3"/><circle cx="25" cy="32" r="3.5" fill="#111111"/><circle cx="39" cy="32" r="3.5" fill="#111111"/><path d="M25 42H39C39 46.5 36 49 32 49C28 49 25 46.5 25 42Z" fill="#111111" stroke="#111111" stroke-width="2"/><rect x="26.5" y="43" width="11" height="2.4" rx="0.5" fill="#FFFFFF"/><path d="M21 21V9L26.5 14.5L32 7L37.5 14.5L43 9V21Z" fill="#62B0EC" stroke="#111111" stroke-width="2.5"/><circle cx="32" cy="17" r="1.8" fill="#FFD23F"/></svg></g><rect x="1.5" y="1.5" width="69" height="69" rx="13" fill="none" stroke="#111111" stroke-width="3"/></g><text x="326" y="118" text-anchor="middle" font-family="ui-monospace, SFMono-Regular, Menlo, Consolas, monospace" font-size="12" font-weight="600" fill="#111111">coral</text><g transform="translate(380 20)"><rect x="4" y="4" width="72" height="72" rx="14" fill="#111111"/><g clip-path="url(#tile)"><svg xmlns="http://www.w3.org/2000/svg" viewBox="0 0 64 64" width="72" height="72" stroke-linecap="round" stroke-linejoin="round"><rect width="64" height="64" fill="#A675E0"/><path d="M4 4H64M4 12H64M4 20H64M4 28H64M4 36H64M4 44H64M4 52H64M4 60H64" fill="none" stroke="#8F5BCC" stroke-width="2.6" stroke-dasharray="0 8"/><g transform="translate(3 3)"><path d="M13 67V35C13 24.51 21.51 16 32 16C42.49 16 51 24.51 51 35V67Z" fill="#111111" stroke="#111111" stroke-width="3"/></g><path d="M13 67V35C13 24.51 21.51 16 32 16C42.49 16 51 24.51 51 35V67Z" fill="#B8E34F" stroke="#111111" stroke-width="3"/><circle cx="25" cy="32" r="3.5" fill="#111111"/><circle cx="39" cy="32" r="3.5" fill="#111111"/><path d="M25 42H39C39 46.5 36 49 32 49C28 49 25 46.5 25 42Z" fill="#111111" stroke="#111111" stroke-width="2"/><rect x="26.5" y="43" width="11" height="2.4" rx="0.5" fill="#FFFFFF"/><path d="M21 21V9L26.5 14.5L32 7L37.5 14.5L43 9V21Z" fill="#FF6B9A" stroke="#111111" stroke-width="2.5"/><circle cx="32" cy="17" r="1.8" fill="#FFD23F"/></svg></g><rect x="1.5" y="1.5" width="69" height="69" rx="13" fill="none" stroke="#111111" stroke-width="3"/></g><text x="416" y="118" text-anchor="middle" font-family="ui-monospace, SFMono-Regular, Menlo, Consolas, monospace" font-size="12" font-weight="600" fill="#111111">grape</text><g transform="translate(470 20)"><rect x="4" y="4" width="72" height="72" rx="14" fill="#111111"/><g clip-path="url(#tile)"><svg xmlns="http://www.w3.org/2000/svg" viewBox="0 0 64 64" width="72" height="72" stroke-linecap="round" stroke-linejoin="round"><rect width="64" height="64" fill="#FF9EC4"/><path d="M4 4H64M4 12H64M4 20H64M4 28H64M4 36H64M4 44H64M4 52H64M4 60H64" fill="none" stroke="#F282AE" stroke-width="2.6" stroke-dasharray="0 8"/><g transform="translate(3 3)"><path d="M13 67V35C13 24.51 21.51 16 32 16C42.49 16 51 24.51 51 35V67Z" fill="#111111" stroke="#111111" stroke-width="3"/></g><path d="M13 67V35C13 24.51 21.51 16 32 16C42.49 16 51 24.51 51 35V67Z" fill="#FFD23F" stroke="#111111" stroke-width="3"/><circle cx="25" cy="32" r="3.5" fill="#111111"/><circle cx="39" cy="32" r="3.5" fill="#111111"/><path d="M25 42H39C39 46.5 36 49 32 49C28 49 25 46.5 25 42Z" fill="#111111" stroke="#111111" stroke-width="2"/><rect x="26.5" y="43" width="11" height="2.4" rx="0.5" fill="#FFFFFF"/><path d="M21 21V9L26.5 14.5L32 7L37.5 14.5L43 9V21Z" fill="#3BCEAC" stroke="#111111" stroke-width="2.5"/><circle cx="32" cy="17" r="1.8" fill="#4EA8F0"/></svg></g><rect x="1.5" y="1.5" width="69" height="69" rx="13" fill="none" stroke="#111111" stroke-width="3"/></g><text x="506" y="118" text-anchor="middle" font-family="ui-monospace, SFMono-Regular, Menlo, Consolas, monospace" font-size="12" font-weight="600" fill="#111111">bubblegum</text><g transform="translate(560 20)"><rect x="4" y="4" width="72" height="72" rx="14" fill="#111111"/><g clip-path="url(#tile)"><svg xmlns="http://www.w3.org/2000/svg" viewBox="0 0 64 64" width="72" height="72" stroke-linecap="round" stroke-linejoin="round"><rect width="64" height="64" fill="#FF9F43"/><path d="M4 4H64M4 12H64M4 20H64M4 28H64M4 36H64M4 44H64M4 52H64M4 60H64" fill="none" stroke="#F08A2A" stroke-width="2.6" stroke-dasharray="0 8"/><g transform="translate(3 3)"><path d="M13 67V35C13 24.51 21.51 16 32 16C42.49 16 51 24.51 51 35V67Z" fill="#111111" stroke="#111111" stroke-width="3"/></g><path d="M13 67V35C13 24.51 21.51 16 32 16C42.49 16 51 24.51 51 35V67Z" fill="#4ECDC4" stroke="#111111" stroke-width="3"/><circle cx="25" cy="32" r="3.5" fill="#111111"/><circle cx="39" cy="32" r="3.5" fill="#111111"/><path d="M25 42H39C39 46.5 36 49 32 49C28 49 25 46.5 25 42Z" fill="#111111" stroke="#111111" stroke-width="2"/><rect x="26.5" y="43" width="11" height="2.4" rx="0.5" fill="#FFFFFF"/><path d="M21 21V9L26.5 14.5L32 7L37.5 14.5L43 9V21Z" fill="#F4EFE3" stroke="#111111" stroke-width="2.5"/><circle cx="32" cy="17" r="1.8" fill="#FF6B9A"/></svg></g><rect x="1.5" y="1.5" width="69" height="69" rx="13" fill="none" stroke="#111111" stroke-width="3"/></g><text x="596" y="118" text-anchor="middle" font-family="ui-monospace, SFMono-Regular, Menlo, Consolas, monospace" font-size="12" font-weight="600" fill="#111111">tangerine</text><g transform="translate(650 20)"><rect x="4" y="4" width="72" height="72" rx="14" fill="#111111"/><g clip-path="url(#tile)"><svg xmlns="http://www.w3.org/2000/svg" viewBox="0 0 64 64" width="72" height="72" stroke-linecap="round" stroke-linejoin="round"><rect width="64" height="64" fill="#F4EFE3"/><path d="M4 4H64M4 12H64M4 20H64M4 28H64M4 36H64M4 44H64M4 52H64M4 60H64" fill="none" stroke="#E2DAC8" stroke-width="2.6" stroke-dasharray="0 8"/><g transform="translate(3 3)"><path d="M13 67V35C13 24.51 21.51 16 32 16C42.49 16 51 24.51 51 35V67Z" fill="#111111" stroke="#111111" stroke-width="3"/></g><path d="M13 67V35C13 24.51 21.51 16 32 16C42.49 16 51 24.51 51 35V67Z" fill="#FF6F59" stroke="#111111" stroke-width="3"/><circle cx="25" cy="32" r="3.5" fill="#111111"/><circle cx="39" cy="32" r="3.5" fill="#111111"/><path d="M25 42H39C39 46.5 36 49 32 49C28 49 25 46.5 25 42Z" fill="#111111" stroke="#111111" stroke-width="2"/><rect x="26.5" y="43" width="11" height="2.4" rx="0.5" fill="#FFFFFF"/><path d="M21 21V9L26.5 14.5L32 7L37.5 14.5L43 9V21Z" fill="#4EA8F0" stroke="#111111" stroke-width="2.5"/><circle cx="32" cy="17" r="1.8" fill="#FFD23F"/></svg></g><rect x="1.5" y="1.5" width="69" height="69" rx="13" fill="none" stroke="#111111" stroke-width="3"/></g><text x="686" y="118" text-anchor="middle" font-family="ui-monospace, SFMono-Regular, Menlo, Consolas, monospace" font-size="12" font-weight="600" fill="#111111">cream</text></svg>